<?xml version="1.0" encoding="UTF-8"?>
<svg width="32px" height="32px" viewBox="0 0 32 32" version="1.1" xmlns="http://www.w3.org/2000/svg" xmlns:xlink="http://www.w3.org/1999/xlink">
    <title>删 除 (1)</title>
    <g id="Coinbase" stroke="none" stroke-width="1" fill="none" fill-rule="evenodd">
        <g id="设置推荐人" transform="translate(-654.000000, -272.000000)" fill-rule="nonzero">
            <g id="删-除-(1)" transform="translate(654.000000, 272.000000)">
                <rect id="矩形" fill="#000000" opacity="0" x="0" y="0" width="32" height="32"></rect>
                <path d="M24.940625,27.26875 C24.940625,28.340625 24.06875,29.2125 23,29.2125 L9.003125,29.2125 C7.93125,29.209375 7.0625,28.340625 7.059375,27.26875 L7.059375,6.65 L24.940625,6.65 L24.940625,27.26875 L24.940625,27.26875 Z M10.94375,3.1625 C10.94375,2.9375 11.11875,2.7625 11.34375,2.7625 L20.68125,2.7625 C20.90625,2.7625 21.078125,2.9375 21.078125,3.1625 L21.078125,4.334375 L10.94375,4.334375 L10.94375,3.1625 L10.94375,3.1625 Z M30.765625,4.334375 L23.396875,4.334375 L23.396875,3.1625 C23.396875,1.66875 22.178125,0.446875 20.68125,0.446875 L11.34375,0.446875 C9.846875,0.45 8.63125,1.6625 8.628125,3.1625 L8.628125,4.334375 L1.234375,4.334375 C0.584375,4.334375 0.0625,4.85625 0.0625,5.503125 C0.0625,6.15 0.584375,6.675 1.234375,6.675 L4.71875,6.675 L4.71875,27.26875 C4.71875,29.634375 6.6375,31.553125 9.003125,31.553125 L22.996875,31.553125 C25.3625,31.553125 27.28125,29.634375 27.28125,27.26875 L27.28125,6.65 L30.76875,6.65 C31.415625,6.65 31.940625,6.128125 31.940625,5.478125 C31.940625,4.828125 31.415625,4.334375 30.765625,4.334375 Z M16,25.7 C16.646875,25.7 17.171875,25.178125 17.171875,24.528125 L17.171875,12.078125 C17.171875,11.43125 16.65,10.90625 16,10.90625 C15.353125,10.90625 14.828125,11.428125 14.828125,12.078125 L14.828125,24.528125 C14.828125,25.175 15.353125,25.7 16,25.7 M10.546875,25.7 C11.19375,25.7 11.71875,25.178125 11.71875,24.528125 L11.71875,12.078125 C11.71875,11.43125 11.196875,10.90625 10.546875,10.90625 C9.9,10.90625 9.375,11.428125 9.375,12.078125 L9.375,24.528125 C9.4,25.175 9.925,25.7 10.546875,25.7 M21.453125,25.7 C22.1,25.7 22.625,25.178125 22.625,24.528125 L22.625,12.078125 C22.625,11.43125 22.103125,10.90625 21.453125,10.90625 C20.80625,10.90625 20.28125,11.428125 20.28125,12.078125 L20.28125,24.528125 C20.284375,25.175 20.80625,25.7 21.453125,25.7" id="形状" fill="#5F6775" opacity="0.3"></path>
            </g>
        </g>
    </g>
</svg>