<?xml version="1.0" encoding="UTF-8"?>
<svg width="36px" height="36px" viewBox="0 0 36 36" version="1.1" xmlns="http://www.w3.org/2000/svg" xmlns:xlink="http://www.w3.org/1999/xlink">
    <title>交易</title>
    <g id="Coinbase" stroke="none" stroke-width="1" fill="none" fill-rule="evenodd">
        <g id="产品详情" transform="translate(-40.000000, -1582.000000)" fill="#1652F0" fill-rule="nonzero">
            <g id="交易" transform="translate(40.000000, 1582.000000)">
                <path d="M30.8716364,16.776 L23.7436364,23.9072727 C23.4375047,24.2166658 23.0203387,24.3907578 22.5850909,24.3907578 C22.1498431,24.3907578 21.7326772,24.2166658 21.4265455,23.9072727 L16.1967273,18.6709091 L9.32727273,25.4683637 C8.91219507,25.879349 8.30938942,26.0376738 7.74592684,25.8836987 C7.18246426,25.7297236 6.74394811,25.286841 6.59556319,24.7218805 C6.44717827,24.15692 6.61146777,23.5557126 7.02654543,23.1447273 L15.0447273,15.2050909 C15.6851525,14.5702677 16.7184545,14.5731949 17.3552727,15.2116364 L22.5818182,20.4381818 L28.5545455,14.4654545 C29.19662,13.8453183 30.2172296,13.8541872 30.8484303,14.4853879 C31.479631,15.1165886 31.4884999,16.1371982 30.8683637,16.7792727 M32.7403636,1.36254644e-15 L3.25963637,1.36254644e-15 C1.46013668,0.00180400403 0.00180400403,1.46013668 5.45018576e-16,3.25963637 L5.45018576e-16,32.7403636 C5.45018576e-16,34.5403636 1.45963638,36 3.25963637,36 L32.7403636,36 C34.5403636,36 35.9967273,34.5403636 36,32.7403636 L36,3.25963637 C35.998196,1.46013668 34.5398633,0.00180400403 32.7403636,1.36254644e-15" id="形状"></path>
            </g>
        </g>
    </g>
</svg>