<?xml version="1.0" encoding="UTF-8"?>
<svg width="32px" height="32px" viewBox="0 0 32 32" version="1.1" xmlns="http://www.w3.org/2000/svg" xmlns:xlink="http://www.w3.org/1999/xlink">
    <title>消息</title>
    <g id="Coinbase" stroke="none" stroke-width="1" fill="none" fill-rule="evenodd">
        <g id="设置弹窗" transform="translate(-64.000000, -532.000000)" fill-rule="nonzero">
            <g id="编组-4" transform="translate(32.000000, 320.000000)">
                <g id="编组-7" transform="translate(32.000000, 209.000000)">
                    <g id="消息" transform="translate(0.000000, 3.000000)">
                        <rect id="矩形" fill="#000000" opacity="0" x="1.69160093e-05" y="0" width="31.9999831" height="31.9999923"></rect>
                        <path d="M16.0000191,0 C7.16322729,0 1.90502558e-05,7.16319112 1.90502558e-05,15.9999801 C-0.0045742542,18.9703885 0.821554758,21.8829005 2.38510128,24.4085031 C3.23149999,25.7765013 1.09390324,28.5994312 1.1392365,30.9178283 C1.1589698,31.9274271 7.3685603,29.5279634 8.42615871,30.0975627 C10.7537981,31.3503615 13.3566463,32.0041438 16.0000191,31.9999802 C24.8368003,31.9999802 31.9999893,24.8367692 31.9999893,15.9999801 C31.9999893,7.16319112 24.8368003,0 16.0000191,0 Z M16.0960137,22.3999722 L10.1333561,22.3999722 C9.54425326,22.3999722 9.06669106,21.9224099 9.06669106,21.3333069 C9.06669106,20.7442039 9.54425326,20.2666415 10.1333561,20.2666415 L16.0960137,20.2666415 C16.6851165,20.2666415 17.1626787,20.7442039 17.1626787,21.3333069 C17.1626787,21.9224099 16.6851165,22.3999722 16.0960137,22.3999722 L16.0960137,22.3999722 Z M21.8666715,17.0666455 L10.1333561,17.0666455 C9.54425326,17.0666455 9.06669106,16.5890831 9.06669106,15.9999801 C9.06669106,15.4108771 9.54425326,14.9333148 10.1333561,14.9333148 L21.8666715,14.9333148 C22.4557743,14.9333148 22.9333365,15.4108771 22.9333365,15.9999801 C22.9333365,16.5890831 22.4557743,17.0666455 21.8666715,17.0666455 L21.8666715,17.0666455 Z M21.8666715,11.7333188 L10.1333561,11.7333188 C9.54425326,11.7333188 9.06669106,11.2557564 9.06669106,10.6666534 C9.06669106,10.0775504 9.54425326,9.59998809 10.1333561,9.59998809 L21.8666715,9.59998809 C22.4557743,9.59998809 22.9333365,10.0775504 22.9333365,10.6666534 C22.9333365,11.2557564 22.4557743,11.7333188 21.8666715,11.7333188 L21.8666715,11.7333188 Z" id="形状" fill="#353F52"></path>
                    </g>
                </g>
            </g>
        </g>
    </g>
</svg>