<?xml version="1.0" encoding="UTF-8"?>
<svg width="32px" height="32px" viewBox="0 0 32 32" version="1.1" xmlns="http://www.w3.org/2000/svg" xmlns:xlink="http://www.w3.org/1999/xlink">
    <title>关  闭</title>
    <g id="Coinbase" stroke="none" stroke-width="1" fill="none" fill-rule="evenodd">
        <g id="下拉菜单" transform="translate(-32.000000, -56.000000)" fill-rule="nonzero">
            <g id="关--闭" transform="translate(32.000000, 56.000000)">
                <rect id="矩形" fill="#000000" opacity="0" x="0" y="0" width="32" height="32"></rect>
                <path d="M17.9546875,16.3234375 L28.2625,6.015625 C28.7828125,5.4953125 28.7828125,4.6375 28.2625,4.1171875 L28.20625,4.0609375 C27.6859375,3.540625 26.828125,3.540625 26.3078125,4.0609375 L16,14.3828125 L5.6921875,4.0609375 C5.171875,3.540625 4.3140625,3.540625 3.79375,4.0609375 L3.7375,4.1171875 C3.203125,4.6375 3.203125,5.4953125 3.7375,6.015625 L14.0453125,16.3234375 L3.7375,26.63125 C3.2171875,27.1515625 3.2171875,28.009375 3.7375,28.5296875 L3.79375,28.5859375 C4.3140625,29.10625 5.171875,29.10625 5.6921875,28.5859375 L16,18.278125 L26.3078125,28.5859375 C26.828125,29.10625 27.6859375,29.10625 28.20625,28.5859375 L28.2625,28.5296875 C28.7828125,28.009375 28.7828125,27.1515625 28.2625,26.63125 L17.9546875,16.3234375 Z" id="路径" fill="#353F52"></path>
            </g>
        </g>
    </g>
</svg>