<?xml version="1.0" encoding="UTF-8"?>
<svg width="32px" height="32px" viewBox="0 0 32 32" version="1.1" xmlns="http://www.w3.org/2000/svg" xmlns:xlink="http://www.w3.org/1999/xlink">
    <title>形状</title>
    <g id="Coinbase" stroke="none" stroke-width="1" fill="none" fill-rule="evenodd">
        <g id="设置弹窗" transform="translate(-64.000000, -688.000000)" fill-rule="nonzero">
            <g id="编组-4" transform="translate(32.000000, 320.000000)">
                <g id="编组" transform="translate(32.000000, 365.000000)">
                    <g id="语言" transform="translate(0.000000, 3.000000)">
                        <rect id="矩形" fill="#000000" opacity="0" x="0" y="0" width="32" height="32"></rect>
                        <path d="M16,0 C24.836556,0 32,7.163444 32,16 C32,24.836556 24.836556,32 16,32 C7.163444,32 0,24.836556 0,16 C0,7.163444 7.163444,0 16,0 Z M4.086,12.796 C3.938,12.944 3.938,12.944 4.086,13.088 C3.692,13.726 2.846,13.804 2.24,13.42 C1.54199109,17.1469219 2.38509382,20.9975952 4.57659767,24.0918599 C6.76810151,27.1861246 10.1206713,29.2594753 13.868,29.838 L13.856,29.828 L13.616,29.708 C14.066,29.564 14.662,29.564 15.106,29.564 C14.958,28.688 14.958,27.962 14.958,27.084 C14.958,27.084 11.534,24.608 11.534,23.148 C11.534,21.688 11.98,20.962 11.534,20.962 C10.788,20.962 9.894,21.546 9.746,20.962 C9.448,20.086 8.852,19.358 7.958,19.068 C5.908,19.068 5.614,16.86 5.578,14.584 L5.576,13.964 C5.576,13.232 4.682,13.232 4.086,12.796 L4.086,12.796 Z M16.846,2.026 L17.018,2.072 C19.286,2.764 19.352,5.052 17.49,4.772 C17.49,5.498 17.49,6.372 17.342,7.248 C17.192,8.708 15.404,8.272 14.958,9 C14.514,9.73 15.852,10.458 17.342,10.166 C17.788,10.166 17.342,9.726 17.642,9.582 C18.236,9.438 18.98,9.438 19.576,9.582 C18.9692287,10.8933782 18.2722225,12.1610875 17.49,13.376 C17.19,13.812 17.49,14.688 17.49,15.27 C17.49,19.648 15.404,14.25 15.106,14.396 C14.808,14.688 13.47,14.104 12.874,14.104 C12.278,14.104 12.574,15.27 11.98,15.27 C10.788,15.27 11.086,14.978 11.086,15.414 C11.086,15.998 11.232,17.166 11.232,18.916 C11.232,19.5 12.424,18.772 13.168,18.772 C14.062,18.772 14.658,19.5 15.254,19.792 C16.294,20.232 17.338,21.69 18.082,21.832 C18.826,21.982 18.23,23.146 19.122,23 C19.568,22.856 20.164,23.148 20.462,23.584 C20.91,24.168 20.612,24.9 20.016,25.336 C19.124,26.21 18.826,27.23 18.38,29.272 C18.624,29.192 18.912,29.396 19.15,29.642 C23.7019773,28.5885478 27.4300417,25.3367097 29.092,20.97 C27.96,22.172 26.652,22.264 27.04,21.246 C26.592,20.372 25.996,19.64 25.252,18.912 C23.91,17.746 22.718,15.556 26.89,12.492 C26.244,10.848 27.844,9.312 28.86,10.464 C26.7704164,5.60858729 22.1242634,2.3440575 16.848,2.024 L16.846,2.026 Z" id="形状" fill="#353F52"></path>
                    </g>
                </g>
            </g>
        </g>
    </g>
</svg>