<?xml version="1.0" encoding="UTF-8"?>
<svg width="32px" height="32px" viewBox="0 0 32 32" version="1.1" xmlns="http://www.w3.org/2000/svg" xmlns:xlink="http://www.w3.org/1999/xlink">
    <title>菜单管理</title>
    <g id="Coinbase" stroke="none" stroke-width="1" fill="none" fill-rule="evenodd">
        <g id="首页" transform="translate(-686.000000, -64.000000)" fill-rule="nonzero">
            <g id="菜单管理" transform="translate(686.000000, 64.000000)">
                <rect id="矩形" fill="#000000" opacity="0" x="0" y="0" width="32" height="32"></rect>
                <path d="M19.6571428,1.82857144 L30.6285714,1.82857144 C31.5428571,1.82857144 32,2.28571429 32,3.2 L32,3.2 C32,4.11428571 31.5428571,4.57142856 30.6285714,4.57142856 L19.6571428,4.57142856 C18.7428571,4.57142856 18.2857143,4.11428571 18.2857143,3.2 L18.2857143,3.2 C18.2857143,2.28571429 18.7428571,1.82857144 19.6571428,1.82857144 Z M19.6571428,9.14285716 L30.6285714,9.14285716 C31.5428571,9.14285716 32,9.60000001 32,10.5142857 L32,10.5142857 C32,11.4285714 31.5428571,11.8857143 30.6285714,11.8857143 L19.6571428,11.8857143 C18.7428571,11.8857143 18.2857143,11.4285714 18.2857143,10.5142857 L18.2857143,10.5142857 C18.2857143,9.60000001 18.7428571,9.14285716 19.6571428,9.14285716 Z M10.9714286,2.74285716 L10.9714286,10.9714286 L2.74285716,10.9714286 L2.74285716,2.74285716 L10.9714286,2.74285716 M11.4285714,0 L2.28571428,0 C1.02334914,0 0,1.02334914 0,2.28571428 L0,11.4285714 C0,12.6909366 1.02334914,13.7142857 2.28571428,13.7142857 L11.4285714,13.7142857 C12.6909366,13.7142857 13.7142857,12.6909366 13.7142857,11.4285714 L13.7142857,2.28571428 C13.7142857,1.02334914 12.6909366,0 11.4285714,0 Z M10.9714286,21.0285714 L10.9714286,29.2571428 L2.74285716,29.2571428 L2.74285716,21.0285714 L10.9714286,21.0285714 M11.4285714,18.2857143 L2.28571428,18.2857143 C1.02334914,18.2857143 0,19.3090634 0,20.5714286 L0,29.7142857 C0,30.3204948 0.240815635,30.9018752 0.669470213,31.3305298 C1.09812479,31.7591844 1.67950516,32 2.28571428,32 L11.4285714,32 C12.0347806,32 12.6161609,31.7591844 13.0448155,31.3305298 C13.4734701,30.9018752 13.7142857,30.3204948 13.7142857,29.7142857 L13.7142857,20.5714286 C13.7142857,19.9652194 13.4734701,19.3838391 13.0448155,18.9551845 C12.6161609,18.5265299 12.0347806,18.2857143 11.4285714,18.2857143 L11.4285714,18.2857143 Z M29.2571428,21.0285714 L29.2571428,29.2571428 L21.0285714,29.2571428 L21.0285714,21.0285714 L29.2571428,21.0285714 M29.7142857,18.2857143 L20.5714286,18.2857143 C19.9652194,18.2857143 19.3838391,18.5265299 18.9551845,18.9551845 C18.5265299,19.3838391 18.2857143,19.9652194 18.2857143,20.5714286 L18.2857143,29.7142857 C18.2857143,30.3204948 18.5265299,30.9018752 18.9551845,31.3305298 C19.3838391,31.7591844 19.9652194,32 20.5714286,32 L29.7142857,32 C30.3204948,32 30.9018752,31.7591844 31.3305298,31.3305298 C31.7591844,30.9018752 32,30.3204948 32,29.7142857 L32,20.5714286 C32,19.9652194 31.7591844,19.3838391 31.3305298,18.9551845 C30.9018752,18.5265299 30.3204948,18.2857143 29.7142857,18.2857143 L29.7142857,18.2857143 Z" id="形状" fill="#1549E7"></path>
            </g>
        </g>
    </g>
</svg>