<?xml version="1.0" encoding="UTF-8"?>
<svg width="40px" height="36px" viewBox="0 0 40 36" version="1.1" xmlns="http://www.w3.org/2000/svg" xmlns:xlink="http://www.w3.org/1999/xlink">
    <title>数量</title>
    <g id="Coinbase" stroke="none" stroke-width="1" fill="none" fill-rule="evenodd">
        <g id="产品详情" transform="translate(-40.000000, -1696.000000)" fill="#1652F0" fill-rule="nonzero">
            <g id="编组-5" transform="translate(40.000000, 1693.000000)">
                <g id="数量" transform="translate(0.000000, 3.000000)">
                    <path d="M15.72,0 L2.85714286,0 C1.28571429,0 0,1.17969231 0,2.61969231 L0,33.3803077 C0,34.8203077 1.28571429,36 2.85714286,36 L15.72,36 C17.2971429,36 18.5771429,34.8286154 18.5771429,33.3803077 L18.5771429,2.61969231 C18.5771429,1.17415385 17.2971429,0 15.72,0 Z M11.3857143,30.0267692 L7.1,30.0267692 C6.31142857,30.0267692 5.67142857,29.4396923 5.67142857,28.7196923 C5.67142857,27.9996923 6.31142857,27.4098462 7.1,27.4098462 L11.3857143,27.4098462 C12.1714286,27.4098462 12.8142857,27.9996923 12.8142857,28.7196923 C12.8142857,29.4396923 12.1714286,30.0267692 11.3857143,30.0267692 Z M11.3857143,22.8267692 L7.1,22.8267692 C6.31142857,22.8267692 5.67142857,22.2396923 5.67142857,21.5196923 C5.67142857,20.7996923 6.31142857,20.2098462 7.1,20.2098462 L11.3857143,20.2098462 C12.1714286,20.2098462 12.8142857,20.7996923 12.8142857,21.5196923 C12.8142857,22.2396923 12.1714286,22.8267692 11.3857143,22.8267692 Z M11.3857143,15.6267692 L7.1,15.6267692 C6.31142857,15.6267692 5.67142857,15.0396923 5.67142857,14.3196923 C5.67142857,13.5996923 6.31142857,13.0098462 7.1,13.0098462 L11.3857143,13.0098462 C12.1714286,13.0098462 12.8142857,13.5996923 12.8142857,14.3196923 C12.8142857,15.0396923 12.1714286,15.6267692 11.3857143,15.6267692 Z M11.3857143,8.42676923 L7.1,8.42676923 C6.31142857,8.42676923 5.67142857,7.83969231 5.67142857,7.11969231 C5.67142857,6.39969231 6.31142857,5.80984615 7.1,5.80984615 L11.3857143,5.80984615 C12.1714286,5.80984615 12.8142857,6.39969231 12.8142857,7.11969231 C12.8142857,7.83969231 12.1714286,8.42676923 11.3857143,8.42676923 Z M37.1428571,13.7436923 C38.7142857,13.7436923 40,14.9233846 40,16.3633846 L40,33.3803077 C40,34.8203077 38.7142857,36 37.1428571,36 L24.28,36 C22.7028571,36 21.4228571,34.8286154 21.4228571,33.3803077 L21.4228571,16.3661538 C21.4228571,14.9206154 22.7028571,13.7492308 24.28,13.7492308 L37.1428571,13.7492308 L37.1428571,13.7436923 Z M32.8228571,30.0267692 C33.6085714,30.0267692 34.2514286,29.4396923 34.2514286,28.7196923 C34.2514286,27.9996923 33.6085714,27.4098462 32.8228571,27.4098462 L28.5342857,27.4098462 C27.7485714,27.4098462 27.1057143,27.9996923 27.1057143,28.7196923 C27.1057143,29.4396923 27.7485714,30.0267692 28.5342857,30.0267692 L32.82,30.0267692 L32.8228571,30.0267692 Z M32.8228571,22.8267692 C33.6085714,22.8267692 34.2514286,22.2396923 34.2514286,21.5196923 C34.2514286,20.7996923 33.6085714,20.2098462 32.8228571,20.2098462 L28.5342857,20.2098462 C27.7485714,20.2098462 27.1057143,20.7996923 27.1057143,21.5196923 C27.1057143,22.2396923 27.7485714,22.8267692 28.5342857,22.8267692 L32.82,22.8267692 L32.8228571,22.8267692 Z" id="形状"></path>
                </g>
            </g>
        </g>
    </g>
</svg>