<?xml version="1.0" encoding="UTF-8"?>
<svg width="36px" height="36px" viewBox="0 0 36 36" version="1.1" xmlns="http://www.w3.org/2000/svg" xmlns:xlink="http://www.w3.org/1999/xlink">
    <title>时 间 2</title>
    <g id="Coinbase" stroke="none" stroke-width="1" fill="none" fill-rule="evenodd">
        <g id="下单页面" transform="translate(-60.000000, -705.000000)" fill="#1652F0" fill-rule="nonzero">
            <g id="时-间-2" transform="translate(60.000000, 705.000000)">
                <path d="M18,-3.8352126e-16 C8.06960082,-3.8352126e-16 -3.8352126e-16,8.03275333 -3.8352126e-16,17.9815763 L-3.8352126e-16,18 C-3.8352126e-16,27.9488229 8.05117707,36 18,36 C27.9488229,36 36,27.9488229 36,18 C36,8.05117707 27.9488229,-3.8352126e-16 18,-3.8352126e-16 Z M26.419652,21.0030706 C26.419652,21.3346981 26.1432958,21.6110542 25.8116684,21.6110542 L16.2128966,21.6110542 C15.8812692,21.5926305 15.6233367,21.3346981 15.6233367,21.0030706 L15.6233367,11.4042989 C15.6233367,11.0726714 15.8812692,10.7963153 16.2128966,10.7963153 L17.4104401,10.7963153 C17.7420676,10.814739 18,11.0726714 18,11.4042989 L18,19.1975435 L25.7932446,19.1975435 C26.1248721,19.1975435 26.4012282,19.4738997 26.419652,19.8055271 L26.419652,21.0030706 Z" id="形状"></path>
            </g>
        </g>
    </g>
</svg>