<?xml version="1.0" encoding="UTF-8"?>
<svg width="90px" height="90px" viewBox="0 0 90 90" version="1.1" xmlns="http://www.w3.org/2000/svg" xmlns:xlink="http://www.w3.org/1999/xlink">
    <title>编组 11</title>
    <g id="Coinbase" stroke="none" stroke-width="1" fill="none" fill-rule="evenodd">
        <g id="产品详情" transform="translate(-621.000000, -279.000000)">
            <g id="编组-11" transform="translate(621.000000, 279.000000)">
                <circle id="椭圆形" stroke="#D8D8D8" cx="45" cy="45" r="44"></circle>
                <g id="下单中心" transform="translate(23.000000, 23.000000)" fill-rule="nonzero">
                    <rect id="矩形" fill="#000000" opacity="0" x="0" y="0" width="44" height="44"></rect>
                    <path d="M14.4264429,15.2495648 L30.8178255,15.2495648 L30.8178255,17.8678576 L14.4264429,17.8678576 L14.4264429,15.2495648 Z M14.4264429,22.1010435 L30.8178255,22.1010435 L30.8178255,24.7193363 L14.4264429,24.7193363 L14.4264429,22.1010435 Z M17.2155159,2.53826706 L28.0287086,2.53826706 L28.0287086,5.15655985 L17.2155159,5.15655985 L17.2155159,2.53826706 L17.2155159,2.53826706 Z M17.2155159,6.53168351 L28.0287086,6.53168351 L28.0287086,9.1499763 L17.2155159,9.1499763 L17.2155159,6.53168351 L17.2155159,6.53168351 Z M14.4264429,28.7094989 L30.8178255,28.7094989 L30.8178255,31.3277917 L14.4264429,31.3277917 L14.4264429,28.7094989 Z M21.3577274,2.59243832 L23.9760202,2.59243832 L23.9760202,9.1500203 L21.3577274,9.1500203 L21.3577274,2.59243832 Z M32.3106134,4.44512217 L30.6419448,4.44512217 L30.6419448,6.93141651 L30.9373365,6.93141651 C33.3964132,6.93141651 35.3898897,8.96108039 35.3898897,11.4648309 L35.3898897,32.7372561 C35.3898897,35.2409626 33.3964133,37.2706705 30.9373365,37.2706705 L14.1795503,37.2706705 C11.7204735,37.2706705 9.72704107,35.2410066 9.72704107,32.7372561 L9.72704107,11.4648308 C9.72704107,8.96112435 11.7205175,6.93141646 14.1795503,6.93141646 L15.0430808,6.93141646 L15.0430808,4.44512217 L12.8062293,4.44512217 C9.94412186,4.44512217 7.62394695,6.80746451 7.62394695,9.72154477 L7.62394695,34.4805422 C7.62394695,37.3946225 9.94412186,39.7569648 12.8062293,39.7569648 L32.3106134,39.7569648 C35.1727209,39.7569648 37.4929398,37.3946225 37.4929398,34.4805422 L37.4929398,9.72154481 C37.4929398,6.80746455 35.1727209,4.44512217 32.3106134,4.44512217 Z" id="形状" fill="#353F52"></path>
                </g>
            </g>
        </g>
    </g>
</svg>