<?xml version="1.0" encoding="utf-8"?>
<!-- Svg Vector Icons : http://www.onlinewebfonts.com/icon -->
<!DOCTYPE svg PUBLIC "-//W3C//DTD SVG 1.1//EN" "http://www.w3.org/Graphics/SVG/1.1/DTD/svg11.dtd">
<svg version="1.1" xmlns="http://www.w3.org/2000/svg" xmlns:xlink="http://www.w3.org/1999/xlink" x="0px" y="0px" viewBox="0 0 256 256" enable-background="new 0 0 256 256" xml:space="preserve">
<metadata> Svg Vector Icons : http://www.onlinewebfonts.com/icon </metadata>
<g><g><path fill="#000000" d="M220.9,64.1h-5h-25.1l-15.2-21.5c-3.6-5-7.7-8.7-13.1-8.7H93.6c-5.4,0-9.5,3.8-12.9,8.7L65.2,64.1H35.1C18.8,64.1,10,75.9,10,93.9v95.4c0,18.1,13.2,32.7,29.5,32.7h177c16.3,0,29.5-14.6,29.5-32.7V93.9C246,75.9,237.2,64.1,220.9,64.1L220.9,64.1z M236,189.3c0,12.5-8.7,22.7-19.5,22.7h-177C28.8,212,20,201.8,20,189.3V93.9c0-13.1,5.1-19.8,15.1-19.8h30.1c3.2,0,6.3-1.5,8.1-4.2L89,48.4c1.9-2.7,3.6-4.4,4.6-4.4h68.8c1.1,0,2.9,1.6,4.9,4.5l15.2,21.5c1.9,2.6,4.9,4.2,8.2,4.2h25.1h5c4.9,0,8.4,1.4,10.9,4.5c2.7,3.4,4.2,8.7,4.2,15.3L236,189.3L236,189.3z"/><path fill="#000000" d="M125.5,80.7c-33.1,0-60,26.9-60,60c0,33.1,26.9,60,60,60c33.1,0,60-26.9,60-60C185.5,107.6,158.6,80.7,125.5,80.7z M125.5,191c-27.7,0-50.3-22.5-50.3-50.3c0-27.7,22.5-50.3,50.3-50.3c27.7,0,50.3,22.5,50.3,50.3C175.8,168.4,153.2,191,125.5,191z"/><path fill="#000000" d="M125.5,194.7"/><path fill="#000000" d="M78.5,49H39.1c-1.2,0-2.2,1-2.2,2.2v5.4c0,1.2,1,2.2,2.2,2.2h39.3c1.2,0,2.2-1,2.2-2.2v-5.4C80.7,49.9,79.7,49,78.5,49L78.5,49z"/><path fill="#000000" d="M46.6,69.4v-18c0-1.2-1-2.2-2.2-2.2H39c-1.2,0-2.2,1-2.2,2.2v18c0,1.2,1,2.2,2.2,2.2h5.4C45.6,71.6,46.6,70.6,46.6,69.4L46.6,69.4z"/><path fill="#000000" d="M126.3,101.3c-21.3,0-38.6,17.3-38.6,38.6c0,21.3,17.3,38.6,38.6,38.6c21.3,0,38.6-17.3,38.6-38.6C164.9,118.6,147.6,101.3,126.3,101.3z M126.3,172.3c-17.8,0-32.3-14.5-32.3-32.3c0-17.8,14.5-32.3,32.3-32.3c17.8,0,32.3,14.5,32.3,32.3C158.6,157.8,144.1,172.3,126.3,172.3z"/><path fill="#000000" d="M206.5,86.3c5,0,8.9,4.1,8.9,9.2c0,5-4,8.9-8.9,8.9c-5.1,0-9.2-4-9.2-8.9C197.4,90.3,201.4,86.3,206.5,86.3L206.5,86.3z"/></g></g>
</svg>